# xmcd
#
# Track frame offsets:
#	150
#	17401
#	36925
#	50159
#	67120
#	83284
#	95653
#	111695
#	127382
#	144712
#	162990
#	176472
#	192313
#	209448
#	226969
#	242655
#	259962
#	277318
#	292437
#	309309
#
# Disc length: 4324 seconds
#
# Revision: 0
# Processed by: cddbd v1.5.1PL0 Copyright (c) Steve Scherf et al.
# Submitted via: EasyCDDAExtractor 8.0.1.1
#
DISCID=4110e214
DTITLE=Various Artist - CDX 369
DYEAR=2005
DGENRE=Country
TTITLE0=Shooter Jennings - 4th of July
TTITLE1=Trisha Yearwood - Georgia Rain
TTITLE2=Tori Baxley - Half A Man
TTITLE3=Lee Ann Womack - He Oughta Know That By Now
TTITLE4=Shania Twain - I Ain't No Quitter
TTITLE5=Shelby Lynne - I Won't Die Alone
TTITLE6=Kenny Chesney - Keg in The Closet
TTITLE7=Cowboy Crush - Nobody Ever Died Of A Broken Heart
TTITLE8=Craig Morgan - Redneck Yacht Club
TTITLE9=Montgomery Gentry - Something To Be Proud Of
TTITLE10=Jace Everett - That's The Kind Of Love I'm In
TTITLE11=Blaine Larson - The Best Man
TTITLE12=Robert Earl Keen - What I Really Mean
TTITLE13=Michele McCord - One True Love
TTITLE14=Billy Chernoff - Down At The Rodeo
TTITLE15=Andra Townsend - Hidden Heroes
TTITLE16=Rhonda Townes - I Wanna Be Loved By You
TTITLE17=Frank Rose - Tennessee Rain
TTITLE18=Hilljack - This Could Get Good
TTITLE19=Bart Connell - We're Just Not Us
EXTD=
EXTT0=
EXTT1=
EXTT2=
EXTT3=
EXTT4=
EXTT5=
EXTT6=
EXTT7=
EXTT8=
EXTT9=
EXTT10=
EXTT11=
EXTT12=
EXTT13=
EXTT14=
EXTT15=
EXTT16=
EXTT17=
EXTT18=
EXTT19=
PLAYORDER=
